<svg width="189" height="358" viewBox="0 0 189 358" fill="none" xmlns="http://www.w3.org/2000/svg">
<mask id="path-1-inside-1_1_158" fill="white">
<path d="M156.734 1.04072C159.188 -0.225845 162.209 0.734611 163.425 3.21367C178.031 32.9792 186.477 65.4067 188.235 98.5504C190.081 133.359 184.509 168.163 171.887 200.656C159.265 233.148 139.882 262.587 115.022 287.022C90.1622 311.457 60.3933 330.33 27.688 342.389C-5.0173 354.449 -39.9121 359.42 -74.684 356.974C-109.456 354.528 -143.311 344.72 -174.006 328.2C-204.7 311.68 -231.534 288.825 -252.727 261.15C-272.907 234.799 -287.536 204.651 -295.75 172.529C-296.434 169.854 -294.76 167.162 -292.071 166.533L-208.733 147.016C-206.045 146.386 -203.363 148.058 -202.644 150.725C-197.54 169.661 -188.777 187.433 -176.833 203.029C-163.875 219.95 -147.469 233.923 -128.702 244.024C-109.935 254.124 -89.2354 260.121 -67.9754 261.617C-46.7155 263.113 -25.3804 260.073 -5.38401 252.7C14.6124 245.326 32.8134 233.787 48.013 218.848C63.2126 203.908 75.0636 185.908 82.7808 166.042C90.4979 146.176 93.9049 124.896 92.776 103.614C91.7355 83.997 86.8632 64.7905 78.4519 47.0736C77.2676 44.579 78.2219 41.5663 80.6757 40.2997L156.734 1.04072Z"/>
</mask>
<path d="M156.734 1.04072C159.188 -0.225845 162.209 0.734611 163.425 3.21367C178.031 32.9792 186.477 65.4067 188.235 98.5504C190.081 133.359 184.509 168.163 171.887 200.656C159.265 233.148 139.882 262.587 115.022 287.022C90.1622 311.457 60.3933 330.33 27.688 342.389C-5.0173 354.449 -39.9121 359.42 -74.684 356.974C-109.456 354.528 -143.311 344.72 -174.006 328.2C-204.7 311.68 -231.534 288.825 -252.727 261.15C-272.907 234.799 -287.536 204.651 -295.75 172.529C-296.434 169.854 -294.76 167.162 -292.071 166.533L-208.733 147.016C-206.045 146.386 -203.363 148.058 -202.644 150.725C-197.54 169.661 -188.777 187.433 -176.833 203.029C-163.875 219.95 -147.469 233.923 -128.702 244.024C-109.935 254.124 -89.2354 260.121 -67.9754 261.617C-46.7155 263.113 -25.3804 260.073 -5.38401 252.7C14.6124 245.326 32.8134 233.787 48.013 218.848C63.2126 203.908 75.0636 185.908 82.7808 166.042C90.4979 146.176 93.9049 124.896 92.776 103.614C91.7355 83.997 86.8632 64.7905 78.4519 47.0736C77.2676 44.579 78.2219 41.5663 80.6757 40.2997L156.734 1.04072Z" fill="white" fill-opacity="0.04" stroke="white" stroke-opacity="0.2" stroke-width="4" mask="url(#path-1-inside-1_1_158)"/>
</svg>
