<svg width="267" height="938" viewBox="0 0 267 938" fill="none" xmlns="http://www.w3.org/2000/svg">
<mask id="path-1-inside-1_1_159" fill="white">
<path d="M933.496 429.812C934.759 429.706 935.87 430.645 935.97 431.909C943.408 525.723 922.42 619.623 875.714 701.365C828.628 783.771 757.624 849.933 672.103 891.091C586.582 932.249 490.577 946.462 396.799 931.849C303.021 917.235 215.893 874.484 146.95 809.255C78.0071 744.027 30.5013 659.397 10.7221 566.571C-9.05716 473.745 -0.176949 377.101 36.187 289.434C72.5509 201.766 134.683 127.211 214.359 75.6382C293.391 24.4814 385.986 -1.66872 480.068 0.567779C481.336 0.597915 482.335 1.65527 482.298 2.92248L480.986 48.7041C480.949 49.9713 479.891 50.9685 478.624 50.9391C394.746 48.9947 312.203 72.3311 241.741 117.941C170.635 163.966 115.186 230.503 82.7329 308.741C50.2802 386.978 42.3552 473.228 60.007 556.069C77.6588 638.911 120.055 714.438 181.582 772.651C243.11 830.863 320.866 869.016 404.558 882.058C488.249 895.1 573.928 882.416 650.25 845.684C726.573 808.953 789.94 749.908 831.962 676.365C873.603 603.487 892.337 519.779 885.756 436.138C885.656 434.874 886.593 433.762 887.857 433.656L933.496 429.812Z"/>
</mask>
<path d="M933.496 429.812C934.759 429.706 935.87 430.645 935.97 431.909C943.408 525.723 922.42 619.623 875.714 701.365C828.628 783.771 757.624 849.933 672.103 891.091C586.582 932.249 490.577 946.462 396.799 931.849C303.021 917.235 215.893 874.484 146.95 809.255C78.0071 744.027 30.5013 659.397 10.7221 566.571C-9.05716 473.745 -0.176949 377.101 36.187 289.434C72.5509 201.766 134.683 127.211 214.359 75.6382C293.391 24.4814 385.986 -1.66872 480.068 0.567779C481.336 0.597915 482.335 1.65527 482.298 2.92248L480.986 48.7041C480.949 49.9713 479.891 50.9685 478.624 50.9391C394.746 48.9947 312.203 72.3311 241.741 117.941C170.635 163.966 115.186 230.503 82.7329 308.741C50.2802 386.978 42.3552 473.228 60.007 556.069C77.6588 638.911 120.055 714.438 181.582 772.651C243.11 830.863 320.866 869.016 404.558 882.058C488.249 895.1 573.928 882.416 650.25 845.684C726.573 808.953 789.94 749.908 831.962 676.365C873.603 603.487 892.337 519.779 885.756 436.138C885.656 434.874 886.593 433.762 887.857 433.656L933.496 429.812Z" fill="white" fill-opacity="0.04" stroke="white" stroke-opacity="0.2" stroke-width="1.83635" mask="url(#path-1-inside-1_1_159)"/>
</svg>
