<svg width="493" height="316" viewBox="0 0 493 316" fill="none" xmlns="http://www.w3.org/2000/svg">
<mask id="path-1-inside-1_1_157" fill="white">
<path d="M15.9081 315.645C13.2615 316.433 10.4721 314.927 9.73826 312.265C0.927589 280.301 -1.33519 246.868 3.10609 213.976C7.77054 179.432 19.7232 146.273 38.1719 116.698C56.6206 87.1221 81.1441 61.8049 110.117 42.4239C139.091 23.0429 171.852 10.0405 206.23 4.27857C240.609 -1.48338 275.819 0.126578 309.528 9.00179C343.237 17.877 374.675 33.8148 401.759 55.759C428.843 77.7032 450.953 105.153 466.626 136.288C481.549 165.935 490.311 198.278 492.403 231.368C492.578 234.124 490.432 236.457 487.673 236.575L402.158 240.24C399.399 240.359 397.076 238.217 396.866 235.463C395.375 215.908 390.073 196.815 381.241 179.269C371.658 160.232 358.139 143.449 341.58 130.032C325.021 116.615 305.799 106.871 285.189 101.444C264.579 96.0178 243.051 95.0334 222.032 98.5564C201.012 102.079 180.982 110.029 163.267 121.879C145.553 133.729 130.559 149.208 119.279 167.291C107.999 185.374 100.691 205.647 97.8392 226.768C95.2105 246.236 96.423 266.014 101.39 284.986C102.089 287.658 100.591 290.44 97.9443 291.228L15.9081 315.645Z"/>
</mask>
<path d="M15.9081 315.645C13.2615 316.433 10.4721 314.927 9.73826 312.265C0.927589 280.301 -1.33519 246.868 3.10609 213.976C7.77054 179.432 19.7232 146.273 38.1719 116.698C56.6206 87.1221 81.1441 61.8049 110.117 42.4239C139.091 23.0429 171.852 10.0405 206.23 4.27857C240.609 -1.48338 275.819 0.126578 309.528 9.00179C343.237 17.877 374.675 33.8148 401.759 55.759C428.843 77.7032 450.953 105.153 466.626 136.288C481.549 165.935 490.311 198.278 492.403 231.368C492.578 234.124 490.432 236.457 487.673 236.575L402.158 240.24C399.399 240.359 397.076 238.217 396.866 235.463C395.375 215.908 390.073 196.815 381.241 179.269C371.658 160.232 358.139 143.449 341.58 130.032C325.021 116.615 305.799 106.871 285.189 101.444C264.579 96.0178 243.051 95.0334 222.032 98.5564C201.012 102.079 180.982 110.029 163.267 121.879C145.553 133.729 130.559 149.208 119.279 167.291C107.999 185.374 100.691 205.647 97.8392 226.768C95.2105 246.236 96.423 266.014 101.39 284.986C102.089 287.658 100.591 290.44 97.9443 291.228L15.9081 315.645Z" fill="white" fill-opacity="0.04" stroke="white" stroke-opacity="0.2" stroke-width="4" mask="url(#path-1-inside-1_1_157)"/>
</svg>
